<svg width="38" height="38" viewBox="0 0 38 38" fill="none" xmlns="http://www.w3.org/2000/svg">
<path d="M16.9931 19.0018L8.55936 19.0018M35.6275 18.0445C35.8069 18.1319 35.9581 18.268 36.0638 18.4372C36.1696 18.6064 36.2255 18.802 36.2254 19.0015C36.2253 19.201 36.169 19.3965 36.063 19.5656C35.957 19.7347 35.8056 19.8705 35.6261 19.9576L3.50192 35.4279C3.30984 35.5203 3.09442 35.5529 2.8836 35.5214C2.67278 35.4899 2.47629 35.3957 2.31963 35.2512C2.16296 35.1067 2.05335 34.9184 2.005 34.7108C1.95666 34.5032 1.97182 34.2858 2.04851 34.0869L7.70333 19.3827C7.7976 19.1375 7.7976 18.866 7.70333 18.6208L2.04992 3.91521C1.9739 3.71656 1.95919 3.49967 2.0077 3.29257C2.05621 3.08548 2.16571 2.89768 2.32205 2.75345C2.47838 2.60923 2.67437 2.51519 2.8847 2.48349C3.09503 2.4518 3.31003 2.4839 3.50192 2.57565L35.6275 18.0445Z" stroke="white" stroke-width="3.39973" stroke-linecap="round" stroke-linejoin="round"/>
</svg>
