<svg width="51" height="52" viewBox="0 0 51 52" fill="none" xmlns="http://www.w3.org/2000/svg">
<path d="M49.8978 46.6916L38.5299 34.9384C41.2668 31.1715 42.7442 26.5863 42.7392 21.8749C42.7392 9.84062 33.2694 0.0498199 21.6298 0.0498199C9.99005 0.0498199 0.520264 9.84062 0.520264 21.8749C0.520264 33.9091 9.99005 43.6999 21.6298 43.6999C26.1867 43.7051 30.6215 42.1776 34.265 39.3479L45.6329 51.1011C46.2083 51.633 46.9588 51.9169 47.7304 51.8945C48.5019 51.8722 49.2359 51.5453 49.7816 50.9811C50.3274 50.4168 50.6436 49.6579 50.6651 48.8603C50.6867 48.0626 50.4122 47.2866 49.8978 46.6916ZM6.55155 21.8749C6.55155 18.7916 7.43587 15.7776 9.09268 13.2139C10.7495 10.6503 13.1044 8.65214 15.8596 7.47222C18.6148 6.2923 21.6465 5.98358 24.5714 6.5851C27.4962 7.18661 30.1829 8.67135 32.2916 10.8516C34.4004 13.0318 35.8364 15.8095 36.4182 18.8336C37 21.8576 36.7014 24.9921 35.5602 27.8407C34.419 30.6892 32.4864 33.124 30.0068 34.8369C27.5272 36.5499 24.6119 37.4642 21.6298 37.4642C17.6322 37.4593 13.7998 35.8152 10.9731 32.8927C8.14647 29.9702 6.55634 26.0079 6.55155 21.8749Z" fill="white"/>
</svg>
